<?xml version="1.0" encoding="UTF-8"?>
<svg id="Capa_1" data-name="Capa 1" xmlns="http://www.w3.org/2000/svg" viewBox="0 0 200 200">
  <defs>
    <style>
      .cls-1 {
        fill: #ff5d02;
      }

      .cls-2 {
        fill: #0f0321;
      }
    </style>
  </defs>
  <path class="cls-1" d="m125.92,131.32c-.04-1.46-1.06-1.99-2.61-1.1-2.5,1.42-5.12,2.64-7.69,3.95-.47.14-.93.33-1.41.42-2.63.52-5.27,1.02-7.9,1.53l-7.18-.04c-3.43-.47-6.85-.93-10.28-1.4-3.09-1.39-6.22-2.71-9.25-4.22-1.23-.61-2.26-1.64-3.38-2.48-.39,1.34-.79,2.69-1.18,4.03-.03,1.97-.28,3.97-.04,5.9.6,4.85,1.88,9.47,5.05,13.42,1.39,1.73,1.63,1.16,2.18-.47.97-2.88,3.49-4.51,6.54-4.44,3.28.07,5.29,1.33,5.89,4.64.42,2.28-.16,4.75-.31,7.13-.03.47-.32,1.05-.14,1.38,1.34,2.49,2.46,5.22,4.28,7.31,1.68,1.94,4.16,3.19,6.28,4.74l.85.13c-.23-.21-.47-.42-.7-.63-1.66-6.12-.18-11.24,4.97-15.07,2.18-1.62,4.53-3,6.8-4.48.68-.52,1.37-1.03,2.05-1.55.7-.85,1.4-1.7,2.11-2.56.67-.86,1.33-1.72,2-2.57.7-1.89,1.39-3.79,2.09-5.68.16-.18.43-.36.45-.55.23-2.46.61-4.92.54-7.37Z"/>
  <path class="cls-2" d="m150.59,124.18c-1.88-5.8-3.8-11.59-5.71-17.38-.27.16-.54.27-.8.34.26-.07.53-.19.8-.34-.32-1.26-.57-2.54-.96-3.78-1.66-5.28-3.37-10.54-5.06-15.81-2.08-6.87-4.15-13.74-6.23-20.61-1.71-5.5-3.43-10.99-5.14-16.49-1.2-4.03-2.32-8.09-3.62-12.08-.68-2.09-1.42-4.24-2.59-6.08-2.44-3.86-6.68-3.64-10.47-3.7-8.04-.11-16.08.43-24.11.22-5.5-.15-9.24,3.32-10.23,8.31-1.54,4.98-3.08,9.96-4.62,14.94-2.2,7.04-4.4,14.07-6.6,21.11-2.4,7.8-4.79,15.6-7.19,23.4-.88,2.61-1.82,5.21-2.61,7.85-1.95,6.48-3.83,12.98-5.73,19.47-.15.53-.24,1.07-.36,1.61.59-.17,1.22-.27,1.77-.53,8.69-4.12,17.64-7.45,27.16-9.07,1.8-.31,2.9-1.19,3.35-3.06.72-2.95,1.63-5.86,2.47-8.79.74-2.68,1.47-5.35,2.23-8.03,1.53-5.39,3.07-10.77,4.61-16.15,2.19-6.87,4.37-13.74,6.56-20.61.2-.36.55-.71.56-1.07.08-2.58,1.41-2.39,3.11-1.46,0,.16.04.32.11.47.65,1.17,1.29,2.35,1.94,3.52-.28.14-.57.28-.85.42.28.07.57.15.85.22,1.76,5.99,3.52,11.99,5.28,17.98,1.26,4.27,2.49,8.55,3.8,12.8.86,2.79,1.82,5.55,2.74,8.33.15.73.26,1.48.46,2.2.95,3.35,1.95,6.69,2.86,10.05.19.69.01,1.48.14,2.2.4,2.17,2.34,1.07,3.49,1.41,5.05,1.49,10.26,2.45,15.27,4.03,4.14,1.31,8.08,3.25,12.11,4.89.34.14.73.17,1.09.25.05-.33.21-.69.12-.98Z"/>
</svg>