<?xml version="1.0" encoding="UTF-8"?>
<svg id="Capa_1" data-name="Capa 1" xmlns="http://www.w3.org/2000/svg" viewBox="0 0 200 200">
  <defs>
    <style>
      .cls-1 {
        fill: #fff;
      }

      .cls-2 {
        fill: #813084;
      }

      .cls-3 {
        fill: #6a1577;
      }

      .cls-4 {
        fill: #9a4993;
      }
    </style>
  </defs>
  <path class="cls-4" d="m155,74.48c0-2.07-.44-3.93-1.36-5.49-.88-1.56-2.2-2.85-3.96-3.86-14.64-8.44-29.31-16.88-43.95-25.31-3.96-2.27-7.76-2.2-11.69.1-5.83,3.42-35.04,20.16-43.72,25.21-3.59,2.07-5.32,5.25-5.32,9.39v50.97c0,2.03.44,3.83,1.29,5.39.88,1.59,2.24,2.95,4.03,4,8.71,5.05,37.89,21.76,43.72,25.21,3.93,2.3,7.76,2.41,11.69.1,14.64-8.47,29.31-16.88,43.95-25.31,1.83-1.05,3.15-2.37,4.03-4,.85-1.56,1.29-3.35,1.29-5.39v-51Z"/>
  <path class="cls-3" d="m100.14,99.79l-53.92,31.04c.88,1.59,2.24,2.95,4.03,4,8.71,5.05,37.89,21.76,43.72,25.21,3.93,2.3,7.76,2.41,11.69.1,14.64-8.47,29.31-16.88,43.95-25.31,1.83-1.05,3.15-2.37,4.03-4l-53.51-31.04Z"/>
  <path class="cls-3" d="m84.17,108.97c3.15,5.49,9.05,9.18,15.79,9.18s12.74-3.73,15.86-9.29l-15.69-9.08-15.96,9.18Z"/>
  <path class="cls-2" d="m155,74.48c0-2.07-.44-3.93-1.36-5.49l-53.51,30.8,53.58,31.04c.85-1.56,1.29-3.35,1.29-5.39v-50.97Z"/>
  <g>
    <path class="cls-1" d="m115.83,108.87c-3.12,5.52-9.05,9.29-15.86,9.29s-12.67-3.69-15.79-9.18c-1.52-2.68-2.41-5.73-2.41-9.01,0-10.06,8.13-18.2,18.2-18.2,6.71,0,12.57,3.66,15.72,9.08l15.89-9.15c-6.34-10.91-18.13-18.27-31.65-18.27-20.2,0-36.53,16.37-36.53,36.53,0,6.61,1.76,12.84,4.85,18.2,6.3,10.95,18.16,18.33,31.72,18.33s25.45-7.42,31.75-18.43l-15.89-9.18Zm20.1-17.55h-3.63v17.52h3.63v-17.52Zm8.03,0h-3.63v17.52h3.63v-17.52Z"/>
    <path class="cls-1" d="m146.9,94.27h-17.52v3.63h17.52v-3.63Zm0,8h-17.52v3.63h17.52v-3.63Z"/>
  </g>
</svg>