<?xml version="1.0" encoding="UTF-8"?>
<svg id="Capa_1" data-name="Capa 1" xmlns="http://www.w3.org/2000/svg" viewBox="0 0 200 200">
  <defs>
    <style>
      .cls-1 {
        fill: #fff;
      }

      .cls-2 {
        fill: #5c8dbc;
      }

      .cls-3 {
        fill: #1b598e;
      }

      .cls-4 {
        fill: #1a4674;
      }
    </style>
  </defs>
  <path class="cls-2" d="m154.99,74.53c0-2.08-.45-3.92-1.34-5.49-.88-1.55-2.21-2.85-3.98-3.88-14.64-8.44-29.3-16.86-43.94-25.31-3.95-2.28-7.77-2.2-11.69.12-5.83,3.44-35.01,20.16-43.71,25.19-3.58,2.07-5.32,5.25-5.32,9.37,0,16.98,0,33.96,0,50.94,0,2.03.43,3.83,1.29,5.39.88,1.6,2.22,2.93,4.04,3.98,8.7,5.04,37.88,21.75,43.71,25.19,3.92,2.31,7.75,2.4,11.69.12,14.64-8.45,29.3-16.87,43.94-25.31,1.81-1.05,3.16-2.39,4.04-3.98.86-1.55,1.28-3.35,1.29-5.39,0,0,0-33.95,0-50.93"/>
  <path class="cls-4" d="m100.17,99.83l-53.88,31.02c.88,1.6,2.22,2.93,4.04,3.98,8.7,5.04,37.88,21.75,43.71,25.19,3.92,2.31,7.75,2.4,11.69.12,14.64-8.45,29.3-16.87,43.94-25.31,1.81-1.05,3.16-2.39,4.04-3.98l-53.55-31.02"/>
  <path class="cls-4" d="m84.21,109.02c3.14,5.47,9.03,9.17,15.79,9.17s12.73-3.74,15.85-9.27l-15.68-9.08-15.96,9.19"/>
  <path class="cls-3" d="m154.99,74.53c0-2.08-.45-3.92-1.34-5.49l-53.48,30.79,53.55,31.02c.86-1.55,1.28-3.35,1.29-5.39,0,0,0-33.95,0-50.93"/>
  <path class="cls-1" d="m152.05,102.05h-4.18v4.19h-4.19v-4.19h-4.18v-4.18h4.18v-4.18h4.19v4.18h4.18v4.18m-15.27,0h-4.18v4.19h-4.18v-4.19h-4.18v-4.18h4.18v-4.18h4.18v4.18h4.18v4.18"/>
  <path class="cls-1" d="m115.85,108.92c-3.12,5.53-9.05,9.27-15.85,9.27s-12.66-3.69-15.79-9.17c-1.58-2.75-2.4-5.86-2.4-9.02,0-10.05,8.14-18.19,18.19-18.19,6.72,0,12.58,3.65,15.73,9.06l15.9-9.16c-6.32-10.91-18.12-18.25-31.63-18.25-20.17,0-36.53,16.35-36.53,36.53,0,6.62,1.76,12.83,4.84,18.18,6.3,10.97,18.14,18.35,31.69,18.35s25.43-7.41,31.73-18.41l-15.88-9.2"/>
</svg>