<?xml version="1.0" encoding="UTF-8"?>
<svg id="Capa_1" data-name="Capa 1" xmlns="http://www.w3.org/2000/svg" viewBox="0 0 200 200">
  <defs>
    <style>
      .cls-1 {
        fill: #659ad2;
      }

      .cls-2 {
        fill: #fff;
      }

      .cls-3 {
        fill: #004482;
      }

      .cls-4 {
        fill: #00599c;
      }
    </style>
  </defs>
  <path class="cls-3" d="m154.96,74.52c.04-1.92-.42-3.81-1.34-5.5-.95-1.63-2.33-2.97-3.98-3.88-14.64-8.45-29.28-16.89-43.93-25.32-3.94-2.28-7.77-2.2-11.69.12-5.83,3.42-35,20.16-43.69,25.2-3.58,2.07-5.32,5.25-5.32,9.38v50.97c-.04,1.88.41,3.73,1.29,5.39.95,1.68,2.35,3.06,4.05,3.98,8.69,5.06,37.87,21.77,43.7,25.21,3.92,2.32,7.74,2.4,11.69.12,14.64-8.46,29.28-16.9,43.93-25.33,1.69-.93,3.09-2.31,4.05-3.98.88-1.66,1.33-3.51,1.29-5.39v-50.96h-.04Z"/>
  <path class="cls-4" d="m154.97,125.49c.04,1.88-.41,3.73-1.29,5.39-.22.39-.46.77-.73,1.13l-52.96-32.01,49.65-34.86c1.65.91,3.02,2.25,3.97,3.88.92,1.68,1.39,3.58,1.35,5.5.01,16.99.01,50.97.01,50.97h0Z"/>
  <path class="cls-1" d="m153.61,69.02l-107.33,61.86c-.88-1.66-1.32-3.51-1.28-5.39v-50.98c0-4.13,1.74-7.3,5.32-9.38,8.7-5.04,37.87-21.78,43.7-25.21,3.91-2.32,7.74-2.4,11.68-.12,14.64,8.46,29.28,16.9,43.93,25.33,1.65.91,3.02,2.25,3.97,3.88Z"/>
  <path class="cls-2" d="m102.11,120.59c-7.36.01-14.14-3.99-17.7-10.43-.18-.32-.35-.64-.51-.97-4.86-10.04-.66-22.12,9.38-26.98,8.39-4.06,18.48-1.85,24.4,5.35.27.32.51.66.77,1.01.12.17.24.33.35.51l17.73-10.22c-.43-.69-.88-1.37-1.36-2.02-.25-.35-.51-.68-.75-1.01-13.61-17.68-38.98-20.98-56.66-7.37-15.53,11.96-20.24,33.34-11.17,50.72.17.32.35.64.51.96,11,19.42,35.67,26.24,55.08,15.23,5.73-3.25,10.58-7.85,14.13-13.4l-17.34-10.48c-3.73,5.69-10.07,9.11-16.88,9.11h0Z"/>
</svg>