<svg id="b523aec8-0bc2-4bda-9a9c-e0d52a7e0c6e" data-name="Capa 1" xmlns="http://www.w3.org/2000/svg" width="200" height="200" viewBox="0 0 200 200"><g id="f2fd447f-b228-4dba-9da5-13c954c1f10b" data-name="layer1"><g id="e981218a-b7bf-4103-b384-17c4aed1778d" data-name="g3013"><polygon id="b3f8986a-56db-40f0-ba23-ec2d36f449c8" data-name="polygon2989" points="155.802 51.748 145.781 164.012 100.735 176.5 55.813 164.029 45.802 51.748 155.802 51.748" style="fill:#264de4"/><polygon id="b39ba8b4-88f7-4479-9a46-32f41f729755" data-name="polygon2991" points="137.202 156.863 145.766 60.929 100.802 60.929 100.802 166.955 137.202 156.863" style="fill:#2965f1"/><polygon id="a589ed00-582e-428b-a047-b85fadc719af" data-name="polygon2993" points="68.752 102.572 69.986 116.343 100.802 116.343 100.802 102.572 68.752 102.572" style="fill:#ebebeb"/><polygon id="a6eeea82-0641-4e70-a0b6-cfe2fc73ef5c" data-name="polygon2995" points="100.802 74.7 100.755 74.7 66.272 74.7 67.523 88.471 100.802 88.471 100.802 74.7" style="fill:#ebebeb"/><polygon id="b1f33dac-ca4c-44f5-8338-d39ff9262eea" data-name="polygon2997" points="100.802 152.664 100.802 138.337 100.742 138.353 85.405 134.211 84.425 123.229 76.973 123.229 70.601 123.229 72.53 144.851 100.739 152.682 100.802 152.664" style="fill:#ebebeb"/><path id="a2ece66e-444f-451b-9705-7f5463d3bbc1" data-name="path2999" d="M71.69,21.2347H88.369V28.21H78.665v6.9748h9.704v6.9748H71.69Z"/><path id="bc16d2c1-4af5-4038-ba89-ad861bc5020f" data-name="path3001" d="M91.7048,21.2347h16.6789V27.3H98.68v1.213h9.7041v13.95H91.7048V36.0941h9.7041v-1.213H91.7048Z"/><path id="ebc1bdfd-053d-4921-9978-725ac2a2230c" data-name="path3003" d="M111.72,21.2347h16.6789V27.3h-9.7041v1.213h9.7041v13.95H111.72V36.0941h9.7041v-1.213H111.72Z"/><polygon id="b4c13368-860d-4866-8f00-15268ab709ce" data-name="polygon3005" points="117.712 116.343 116.114 134.203 100.755 138.348 100.755 152.675 128.986 144.851 129.193 142.524 132.429 106.27 132.765 102.572 135.251 74.7 100.755 74.7 100.755 88.471 120.159 88.471 118.906 102.572 100.755 102.572 100.755 116.343 117.712 116.343" style="fill:#fff"/></g></g></svg>