<?xml version="1.0" encoding="UTF-8"?>
<svg id="Capa_1" data-name="Capa 1" xmlns="http://www.w3.org/2000/svg" viewBox="0 0 200 200">
  <path d="m112.34,131.28c3.52-.81,6.94-1.41,10.23-2.4,10.96-3.3,17.09-10.9,18.94-22.04.94-5.62,1.22-11.27-.47-16.84-.97-3.2-2.51-6.11-4.69-8.65-.66-.76-.82-1.38-.52-2.37,1.58-5.22,1.08-10.38-.75-15.43-.18-.5-1.08-1.15-1.55-1.08-2.21.31-4.53.53-6.56,1.39-3.22,1.36-6.21,3.23-9.35,4.8-.67.33-1.59.55-2.29.39-10.19-2.43-20.35-2.43-30.55-.03-.75.18-1.77,0-2.43-.4-4.39-2.71-8.83-5.27-14.04-6.08-2.81-.44-3.12-.28-3.89,2.41-1.38,4.79-1.62,9.59-.17,14.42.14.45.03,1.18-.27,1.53-5.93,7.05-6.95,15.26-5.78,24.01.75,5.59,2.36,10.86,5.93,15.36,4.51,5.69,10.72,8.4,17.61,9.83,1.92.4,3.87.67,6,1.04-2.21,2.39-3.32,5.11-3.89,8.1-.08.44-.62.94-1.07,1.13-7.33,3.15-13.92,1.04-18.18-5.79-2.2-3.52-5.11-6.12-9.33-6.85-.85-.15-1.79-.07-2.63.13-1.5.34-1.71,1.19-.62,2.34.47.49.99.97,1.57,1.3,3.32,1.94,5.71,4.83,6.88,8.34,2.56,7.71,10.11,11.03,18.18,10.25,1.55-.15,3.1-.38,4.89-.6,0,4.32.11,8.51-.04,12.69-.09,2.34-2.3,3.42-4.85,2.55-5.74-1.95-11.16-4.59-16.07-8.15-19.58-14.2-29.29-33.49-28.62-57.63.86-31.07,23.89-57.44,54.46-62.94,35.53-6.4,69.68,17.26,76.47,52.96,6.18,32.52-12.09,64.62-43.02,75.56-3.69,1.31-5.52,0-5.5-3.94.03-5.51.05-11.02.09-16.53.04-4.73-.74-9.19-4.12-12.78Z"/>
</svg>