<?xml version="1.0" encoding="UTF-8"?>
<svg id="Capa_1" data-name="Capa 1" xmlns="http://www.w3.org/2000/svg" viewBox="0 0 200 200">
  <defs>
    <style>
      .cls-1 {
        fill: #00acd7;
      }
    </style>
  </defs>
  <path class="cls-1" d="m32.57,88.3c-.31,0-.39-.15-.23-.39l1.62-2.09c.15-.23.54-.39.85-.39h27.61c.31,0,.39.23.23.46l-1.31,2.01c-.15.23-.54.46-.77.46l-28-.08Z"/>
  <path class="cls-1" d="m20.89,95.41c-.31,0-.39-.15-.23-.39l1.62-2.09c.15-.23.54-.39.85-.39h35.26c.31,0,.46.23.39.46l-.62,1.86c-.08.31-.39.46-.7.46l-36.58.08Z"/>
  <path class="cls-1" d="m39.61,102.53c-.31,0-.39-.23-.23-.46l1.08-1.93c.15-.23.46-.46.77-.46h15.47c.31,0,.46.23.46.54l-.15,1.86c0,.31-.31.54-.54.54l-16.86-.08Z"/>
  <g id="CXHf1q">
    <g>
      <path class="cls-1" d="m119.88,86.91c-4.87,1.24-8.2,2.17-12.99,3.4-1.16.31-1.24.39-2.24-.77-1.16-1.31-2.01-2.17-3.63-2.94-4.87-2.4-9.59-1.7-14,1.16-5.26,3.4-7.97,8.43-7.89,14.69.08,6.19,4.33,11.29,10.44,12.14,5.26.7,9.67-1.16,13.15-5.1.7-.85,1.31-1.78,2.09-2.86h-14.93c-1.62,0-2.01-1.01-1.47-2.32,1.01-2.4,2.86-6.42,3.94-8.43.23-.46.77-1.24,1.93-1.24h28.15c-.15,2.09-.15,4.18-.46,6.26-.85,5.57-2.94,10.67-6.34,15.16-5.57,7.35-12.84,11.91-22.04,13.15-7.58,1.01-14.62-.46-20.8-5.1-5.72-4.33-8.97-10.05-9.82-17.17-1.01-8.43,1.47-16.01,6.57-22.66,5.49-7.19,12.76-11.75,21.65-13.38,7.27-1.31,14.23-.46,20.49,3.79,4.1,2.71,7.04,6.42,8.97,10.9.46.7.15,1.08-.77,1.31Z"/>
      <path class="cls-1" d="m145.48,129.67c-7.04-.15-13.46-2.17-18.87-6.81-4.56-3.94-7.42-8.97-8.35-14.93-1.39-8.74,1.01-16.47,6.26-23.36,5.65-7.42,12.45-11.29,21.65-12.91,7.89-1.39,15.31-.62,22.04,3.94,6.11,4.18,9.9,9.82,10.9,17.25,1.31,10.44-1.7,18.95-8.89,26.22-5.1,5.18-11.37,8.43-18.56,9.9-2.09.39-4.18.46-6.19.7Zm18.41-31.24c-.08-1.01-.08-1.78-.23-2.55-1.39-7.66-8.43-11.99-15.78-10.29-7.19,1.62-11.83,6.19-13.53,13.46-1.39,6.03,1.55,12.14,7.11,14.62,4.25,1.86,8.51,1.62,12.61-.46,6.11-3.17,9.43-8.12,9.82-14.77Z"/>
    </g>
  </g>
</svg>