<?xml version="1.0" encoding="UTF-8"?>
<svg id="Capa_1" data-name="Capa 1" xmlns="http://www.w3.org/2000/svg" viewBox="0 0 200 200">
  <defs>
    <style>
      .cls-1 {
        fill: #ea2d2e;
      }

      .cls-1, .cls-2 {
        fill-rule: evenodd;
      }

      .cls-2 {
        fill: #0074bd;
      }
    </style>
  </defs>
  <path class="cls-2" d="m81.22,139.11s-5.46,3.18,3.89,4.25c11.34,1.29,17.13,1.11,29.62-1.25,0,0,3.29,2.06,7.88,3.84-28.01,12-63.39-.7-41.4-6.84h0Z"/>
  <path class="cls-2" d="m77.8,123.45s-6.13,4.54,3.23,5.51c12.11,1.25,21.68,1.35,38.23-1.83,0,0,2.28,2.32,5.88,3.59-33.86,9.9-71.58.78-47.35-7.26h0Z"/>
  <path class="cls-1" d="m106.65,96.87c6.91,7.95-1.81,15.1-1.81,15.1,0,0,17.52-9.04,9.48-20.38-7.52-10.56-13.28-15.81,17.92-33.91,0,0-48.98,12.23-25.59,39.19h0Z"/>
  <path class="cls-2" d="m143.7,150.7s4.05,3.33-4.46,5.91c-16.16,4.9-67.29,6.37-81.49.2-5.1-2.22,4.47-5.3,7.48-5.95,3.14-.68,4.93-.56,4.93-.56-5.68-4-36.69,7.85-15.75,11.25,57.11,9.26,104.1-4.17,89.29-10.85h0Z"/>
  <path class="cls-2" d="m83.85,107.21s-26,6.18-9.21,8.42c7.09.95,21.23.73,34.4-.37,10.76-.9,21.56-2.84,21.56-2.84,0,0-3.79,1.63-6.54,3.5-26.41,6.95-77.42,3.71-62.73-3.39,12.42-6.01,22.52-5.32,22.52-5.32h0Z"/>
  <path class="cls-2" d="m130.5,133.29c26.85-13.95,14.43-27.35,5.77-25.54-2.12.44-3.07.83-3.07.83,0,0,.79-1.24,2.29-1.77,17.14-6.02,30.32,17.77-5.53,27.19,0,0,.41-.37.54-.71h0Z"/>
  <path class="cls-1" d="m114.32,28.46s14.86,14.87-14.1,37.74c-23.23,18.35-5.3,28.8,0,40.76-13.56-12.23-23.51-23-16.84-33.03,9.8-14.71,36.94-21.85,30.95-45.47h0Z"/>
  <path class="cls-2" d="m86.49,171.09c25.76,1.65,65.33-.92,66.27-13.11,0,0-1.8,4.62-21.29,8.29-21.99,4.14-49.12,3.66-65.2,1,0,0,3.3,2.73,20.23,3.82h0Z"/>
</svg>