<?xml version="1.0" encoding="UTF-8"?>
<svg id="Capa_1" data-name="Capa 1" xmlns="http://www.w3.org/2000/svg" viewBox="0 0 200 200">
  <defs>
    <style>
      .cls-1 {
        fill: #fff;
      }

      .cls-2 {
        fill: #336791;
      }
    </style>
  </defs>
  <g id="Layer_3">
    <g>
      <path d="m133.63,131.92c.89-7.42.62-8.51,6.15-7.31l1.4.12c4.25.19,9.81-.68,13.07-2.2,7.03-3.26,11.2-8.71,4.27-7.28-15.81,3.26-16.9-2.09-16.9-2.09,16.7-24.77,23.67-56.22,17.65-63.91-16.43-21-44.87-11.07-45.35-10.81l-.15.03c-3.12-.65-6.62-1.04-10.55-1.1-7.15-.12-12.58,1.88-16.7,5,0,0-50.74-20.9-48.38,26.29.5,10.04,14.39,75.96,30.95,56.05,6.05-7.28,11.9-13.44,11.9-13.44,2.91,1.93,6.38,2.91,10.03,2.56l.28-.24c-.09.9-.05,1.79.11,2.84-4.27,4.77-3.01,5.6-11.54,7.36-8.63,1.78-3.56,4.95-.25,5.77,4.01,1,13.3,2.43,19.57-6.36l-.25,1c1.67,1.34,1.56,9.63,1.8,15.55.24,5.92.63,11.45,1.84,14.7,1.21,3.26,2.63,11.65,13.84,9.24,9.37-2.01,16.53-4.9,17.19-31.78"/>
      <path d="m112.78,170c-5.1,0-8.42-1.98-10.45-3.89-3.04-2.87-4.24-6.54-4.95-8.73-.11-.34-.22-.67-.3-.88-1.43-3.87-1.92-9.4-2.2-16.51-.04-1.05-.07-2.18-.11-3.32-.02-.71-.04-1.53-.07-2.38-4.82,2.11-10.47,2.49-16.5.98-2.7-.67-5.49-2.04-7.23-4.13-4.8,3.99-9.37,3.41-11.88,2.57-4.49-1.5-8.49-5.67-12.22-12.75-2.63-4.99-5.18-11.49-7.57-19.32-4.16-13.61-6.8-27.97-7.03-32.69-.74-14.86,3.28-25.5,11.95-31.63,7.16-5.06,16.95-6.61,29.09-4.62,5.16.85,9.63,2.18,12.42,3.12,5.03-2.99,10.93-4.44,17.59-4.33,3.56.06,6.94.37,10.1.92,3.38-1.05,9.88-2.51,17.27-2.42,13.86.17,25.34,5.57,33.22,15.63,5.39,6.89,3.39,20.47.76,30.65-2.95,11.41-8.06,23.52-14.36,34.15,1.67-.05,3.95-.29,7.03-.92,7.68-1.58,9.81,2.93,10.28,4.35,2.38,7.21-7.73,12.55-10.89,14.01-3.99,1.85-10.5,2.98-15.81,2.74l-.25-.02-.95-.08c-.03.24-.06.49-.08.72-.04.35-.08.72-.13,1.11-.36,13.7-2.33,22.4-6.38,28.17-4.29,6.11-10.22,7.81-15.44,8.93-1.78.38-3.41.55-4.89.55Zm-10.15-50.38c3.35,2.68,3.64,7.58,3.9,16.72.03,1.1.06,2.17.1,3.18.12,2.99.4,9.98,1.48,12.9.16.43.3.86.45,1.32,1.22,3.73,1.72,5.28,6.65,4.22,4.35-.93,6.57-1.76,8.28-4.19,2.56-3.65,3.99-11.04,4.26-21.98l5.87.14-5.83-.7c.06-.47.11-.92.16-1.35.51-4.38.91-7.84,4.04-10.08,1.97-1.41,4.19-1.6,6.12-1.42-1.59-1.62-2.09-3.28-2.25-4.04l-.49-2.41,1.38-2.04c7.28-10.81,13.3-24.09,16.5-36.45,3.27-12.61,2.35-19.29,1.39-20.55-13.06-16.69-35.8-9.88-38.3-9.06l-.44.24-2.2.41-1.13-.23c-2.86-.59-6.04-.92-9.45-.98-5.3-.08-9.57,1.16-13.06,3.81l-2.68,2.03-3.11-1.28c-6.08-2.49-23.94-7.5-33.3-.87-5.15,3.65-7.5,10.86-6.97,21.43.18,3.66,2.67,17.39,6.76,30.59,5.63,18.14,10.6,23.18,12.01,23.59.18-.07.8-.4,1.8-1.59,6.11-7.35,11.92-13.47,12.16-13.73l3.4-3.58,4.11,2.73c1.42.94,2.97,1.49,4.57,1.62l9.76-8.32-1.41,14.49c-.03.27-.04.65.07,1.36l.43,2.75-1.85,2.07s-.03.04-.05.06l4.56,2.1,2.31-2.89Z"/>
    </g>
    <path class="cls-2" d="m158.52,115.26c-15.81,3.26-16.9-2.09-16.9-2.09,16.7-24.77,23.67-56.22,17.65-63.92-16.43-20.99-44.87-11.07-45.35-10.81l-.15.03c-3.12-.65-6.62-1.03-10.55-1.1-7.15-.12-12.58,1.88-16.7,5,0,0-50.74-20.9-48.38,26.29.5,10.04,14.39,75.97,30.95,56.05,6.05-7.28,11.9-13.44,11.9-13.44,2.91,1.93,6.38,2.91,10.03,2.56l.28-.24c-.09.9-.05,1.79.11,2.84-4.27,4.77-3.01,5.6-11.54,7.36-8.63,1.78-3.56,4.95-.25,5.77,4.01,1,13.3,2.43,19.57-6.36l-.25,1c1.67,1.34,2.85,8.71,2.65,15.39-.2,6.68-.33,11.27.99,14.85,1.32,3.58,2.63,11.65,13.84,9.24,9.37-2.01,14.23-7.21,14.9-15.89.48-6.17,1.56-5.26,1.63-10.78l.87-2.61c1-8.37.16-11.06,5.93-9.81l1.4.12c4.25.19,9.81-.68,13.07-2.2,7.03-3.26,11.2-8.71,4.27-7.28h0Z"/>
    <path class="cls-1" d="m113.34,166.36c-9.44,0-12.42-7.47-13.65-10.52-1.79-4.48-2.18-21.22-1.77-35.83.03-1.08.93-1.93,2.01-1.9,1.08.03,1.93.93,1.9,2.01-.46,16.27.19,31,1.49,34.27,2.02,5.06,5.09,9.49,13.77,7.63,8.37-1.79,11.34-4.81,12.74-12.89,1.07-6.18,3.18-23.77,3.44-27.25.08-1.08,1.02-1.89,2.1-1.81,1.08.08,1.89,1.02,1.81,2.1-.27,3.62-2.37,21.2-3.48,27.62-1.65,9.6-5.93,13.95-15.78,16.06-1.68.36-3.2.52-4.59.52Z"/>
    <path class="cls-1" d="m62.67,130.2c-.91,0-1.74-.17-2.45-.41-6.12-2.04-11.93-11.96-17.28-29.49-4.06-13.32-6.64-27.22-6.87-31.74-.67-13.43,2.79-22.94,10.3-28.26,14.84-10.51,39.75-.52,40.81-.09,1,.41,1.48,1.55,1.07,2.56-.41,1-1.55,1.48-2.55,1.07-.29-.12-24.01-9.6-37.07-.34-6.34,4.5-9.25,12.86-8.65,24.87.19,3.8,2.59,17.33,6.7,30.79,4.75,15.56,10.13,25.37,14.78,26.92.71.24,2.88.96,6.02-2.81,6.03-7.25,11.56-13.04,11.62-13.1.75-.78,1.99-.81,2.77-.06.78.75.81,1.99.06,2.77-.05.06-5.5,5.75-11.44,12.89-2.85,3.42-5.58,4.43-7.82,4.43Z"/>
    <path class="cls-1" d="m141.51,114.93c-.38,0-.76-.11-1.09-.33-.9-.6-1.13-1.82-.53-2.72,16.84-24.99,22.78-55.16,17.73-61.61-6.35-8.12-15.33-12.36-26.67-12.61-8.39-.18-15.1,1.96-16.21,2.34-.09.05-.19.08-.29.12-1.19.37-2.1-.28-2.45-1.04-.41-.9-.07-1.97.77-2.49.73-.44,8.45-2.94,17.68-2.85,12.66.13,23.12,5.02,30.24,14.12,4.81,6.14,1.63,21.11.05,27.25-3.41,13.22-9.83,27.42-17.62,38.97-.38.56-1,.86-1.63.86Z"/>
    <path class="cls-1" d="m142.37,126.52c-2.91,0-5.53-.41-7.09-1.35-1.65-.99-1.96-2.34-2-3.05-.43-7.51,3.59-9,5.83-9.64-.28-.41-.66-.87-1.04-1.35-1.26-1.57-2.98-3.72-4.3-6.94-.2-.49-.85-1.65-1.6-2.99-4.08-7.31-12.57-22.53-7.08-30.38,2.52-3.6,7.5-5.05,14.81-4.31-.97-2.89-3.41-8.25-7.91-13.56-5.22-6.17-14.48-13.58-28.91-13.81-7.34-.12-13.34,2.13-17.85,6.68-10.12,10.2-9.77,28.77-9.77,28.96.03,1.08-.83,1.98-1.91,2.01-1.08.02-1.98-.83-2.01-1.91-.02-.83-.4-20.4,10.89-31.81,5.3-5.35,12.26-8,20.71-7.85,15.74.26,25.87,8.26,31.6,14.93,6.24,7.27,9.31,15.29,9.56,17.98.2,2.15-1.45,2.56-1.64,2.6l-.71.02c-4.94-.79-11.31-1.03-13.66,2.33-4.08,5.83,3.89,20.12,7.29,26.22.87,1.57,1.51,2.7,1.8,3.41,1.11,2.7,2.57,4.52,3.74,5.98,1.04,1.3,1.94,2.43,2.27,3.77.17.28,2.35,3.24,14.62.71,3.22-.67,5.16-.08,5.77,1.74,1.16,3.52-5.26,7.58-8.81,9.23-3.17,1.47-8.22,2.4-12.59,2.4Zm-5.19-4.78c.48.39,2.5,1.02,6.48.83,3.6-.17,7.39-.96,9.66-2.01,2.63-1.22,4.49-2.59,5.58-3.6-.03,0-.06.01-.09.02-8.05,1.66-13.75,1.43-16.95-.68-.2-.13-.38-.27-.55-.4-.27.09-.55.17-.83.25-1.81.51-3.52.99-3.3,5.58Z"/>
    <path class="cls-1" d="m85.29,132.08c-1.99,0-4.08-.27-6.24-.81-.62-.16-6.08-1.62-6-5.11.07-3.19,4.62-4.13,6.34-4.48,6.03-1.24,6.42-1.74,8.29-4.11.56-.7,1.25-1.58,2.19-2.63h0c3.13-3.51,6.09-2.28,7.35-1.76,1.98.82,3.63,2.8,4.31,5.17.61,2.14.32,4.21-.83,5.81-3.73,5.22-9.07,7.93-15.4,7.93Zm-7.91-5.74c.57.39,1.54.85,2.61,1.12,5.23,1.31,12.51,1.4,17.5-5.6.59-.83.41-1.89.25-2.46-.34-1.19-1.18-2.27-2.04-2.63-1.06-.44-1.65-.68-2.93.75,0,0,0,0,0,0-.86.96-1.48,1.75-2.03,2.45-2.39,3.04-3.49,4.07-10.58,5.53-1.47.3-2.31.61-2.78.83Zm13.93-10.11h0,0Z"/>
    <path class="cls-1" d="m91.03,118.11c-.95,0-1.79-.69-1.93-1.66-.04-.26-.07-.52-.08-.78-4.61-.12-9.04-2.12-12.41-5.64-4.31-4.49-6.26-10.71-5.38-17.07.96-6.84.6-12.88.41-16.13-.05-.91-.09-1.56-.09-2.02,0-.6.01-2.18,5.18-4.8,1.82-.92,5.46-2.53,9.44-2.94,6.64-.69,11.03,2.28,12.34,8.34,3.5,16.2.28,23.37-2.08,28.61-.44.97-.85,1.89-1.18,2.77l-.29.78c-1.23,3.31-2.3,6.17-1.98,8.28.16,1.07-.57,2.07-1.64,2.23-.1.02-.2.02-.3.02Zm-15.56-42.73c.02.33.04.74.07,1.22.2,3.38.57,9.68-.44,16.9-.72,5.16.85,10.2,4.32,13.82,2.73,2.85,6.32,4.42,10.01,4.43.42-1.74,1.11-3.57,1.84-5.54l.29-.78c.37-1.01.81-1.98,1.28-3.01,2.25-5,5.06-11.23,1.82-26.17-.62-2.89-2.13-4.56-4.59-5.13-5.4-1.24-12.97,2.82-14.61,4.27Z"/>
    <g>
      <path class="cls-1" d="m86.26,74.54c-.09.64,1.17,2.35,2.82,2.58,1.65.23,3.05-1.11,3.14-1.75.09-.64-1.17-1.35-2.82-1.58-1.65-.23-3.06.1-3.14.74h0Z"/>
      <path class="cls-1" d="m89.45,77.8c-.16,0-.31-.01-.47-.03-1.03-.14-2.08-.8-2.8-1.74-.25-.33-.66-.98-.58-1.57.03-.22.14-.54.51-.82.65-.49,1.94-.68,3.37-.48,1.75.24,3.55,1.07,3.38,2.31-.09.64-.71,1.27-1.27,1.65-.66.45-1.41.69-2.15.69Zm-2.54-3.13c.1.44,1.04,1.64,2.25,1.81,1.23.17,2.24-.8,2.39-1.15-.14-.21-.9-.69-2.25-.88-1.34-.19-2.19.06-2.4.22Z"/>
    </g>
    <g>
      <path class="cls-1" d="m136.37,73.24c.09.64-1.17,2.35-2.82,2.58-1.65.23-3.05-1.11-3.15-1.75-.09-.64,1.18-1.35,2.82-1.58s3.05.1,3.14.74h0Z"/>
      <path class="cls-1" d="m133.18,76.17c-1.62,0-2.99-1.3-3.1-2.05-.13-.98,1.46-1.72,3.1-1.95.84-.12,1.64-.1,2.28.05.73.17,1.17.52,1.24.97h0c.06.44-.27,1.11-.85,1.71-.38.4-1.17,1.08-2.25,1.23-.14.02-.28.03-.41.03Zm1.07-3.42c-.29,0-.62.02-.98.07-1.72.24-2.58.92-2.54,1.21.06.44,1.3,1.67,2.78,1.47.89-.12,1.55-.7,1.87-1.04.5-.52.7-1.01.67-1.17h0c-.03-.23-.68-.54-1.8-.54Z"/>
    </g>
    <path class="cls-1" d="m138.75,110.16c-.37,0-.75-.11-1.09-.33-.9-.6-1.14-1.82-.54-2.72,3.83-5.72,3.12-11.57,2.45-17.22-.29-2.43-.59-4.94-.51-7.35.08-2.48.39-4.52.7-6.5.36-2.33.7-4.53.56-7.13-.06-1.08.77-2,1.85-2.06,1.08-.06,2,.77,2.06,1.85.16,3.01-.22,5.52-.6,7.94-.29,1.86-.58,3.79-.65,6.03-.07,2.12.2,4.37.49,6.76.73,6.07,1.56,12.95-3.08,19.87-.38.56-1,.87-1.63.87Z"/>
  </g>
</svg>