<?xml version="1.0" encoding="UTF-8"?>
<svg id="Capa_1" data-name="Capa 1" xmlns="http://www.w3.org/2000/svg" viewBox="0 0 200 200">
  <defs>
    <style>
      .cls-1 {
        fill: #4d51e5;
      }
    </style>
  </defs>
  <path class="cls-1" d="m95.74,161.8v-8c4.68-.47,9.14-.73,13.53-1.38,21.46-3.2,39.6-21.25,43.27-42.79,3.11-18.24-1.85-34.12-14.69-47.16-17.62-17.9-43.34-19.62-62.22-9.67-15.37,8.1-24.9,20.78-28.15,37.88-.9,4.71-1.01,9.61-1.04,14.42-.12,17-.05,34-.05,50.99,0,1.79,0,3.58,0,5.74h-8.54c-.13-1.07-.36-2.02-.36-2.98,0-20-.21-40,.09-59.99.43-28.6,19.28-50.29,41.91-57.61,35.94-11.62,69.6,7.26,79.93,39.55,9.89,30.92-3.97,61.79-32.91,75.78-8.93,4.32-18.32,5.8-28.1,5.6-.8-.02-1.59-.22-2.68-.38Z"/>
  <path class="cls-1" d="m95.75,145.01v-9.25c1.66-.12,3.11-.35,4.57-.33,16.82.29,33.27-13.61,33.78-33.83.46-18.13-12.68-32.47-28.71-35.04-16.3-2.62-32.38,7.4-37.67,23.58-1.33,4.07-1.64,8.11-1.64,12.28,0,17.82,0,35.64,0,53.46,0,1.81,0,3.63,0,5.88h-8.26c-.2-.84-.61-1.76-.61-2.69.01-20.65-.19-41.31.19-61.95.38-20.79,19.76-39.05,40.58-39.95,24.23-1.05,45.36,18.85,45.18,43.77-.15,20.94-14.5,38.55-33.88,42.58-4.31.9-8.78.99-13.52,1.49Z"/>
  <path class="cls-1" d="m76.34,100.3c-.04-13.11,10.66-23.96,23.74-23.91,11.33.04,23.52,8.36,23.84,23.92.27,12.69-10.91,23.58-23.6,23.68-13.08.1-23.94-10.63-23.98-23.69Z"/>
</svg>