<?xml version="1.0" encoding="UTF-8"?>
<svg id="Capa_1" data-name="Capa 1" xmlns="http://www.w3.org/2000/svg" viewBox="0 0 200 200">
  <defs>
    <style>
      .cls-1 {
        fill: #fff;
      }

      .cls-2 {
        fill: #18b6f6;
      }

      .cls-3 {
        fill: #ac7ef4;
      }
    </style>
  </defs>
  <path class="cls-2" d="m141.5,158.21l-20.91-20.79-.32.05v-.23l-44.46-43.9,10.96-10.58-6.44-36.92-30.54,37.84c-5.2,5.24-6.16,13.77-2.42,20.06l19.08,31.64c2.92,4.88,8.22,7.8,13.92,7.75l9.45-.09s51.67,15.18,51.67,15.18Z"/>
  <path class="cls-3" d="m152.91,82.95l-4.2-7.75-2.19-3.97-.87-1.55-.09.09-11.5-19.92c-2.88-5.01-8.26-8.11-14.11-8.07l-10.09.27-30.08.09c-5.7.05-10.91,3.05-13.78,7.93l-18.3,36.29,32.73-40.62,42.91,47.14-7.62,7.7,4.56,36.88.05-.09v.09h-.09l.09.09,3.56,3.47,17.3,16.91c.73.68,1.92-.14,1.41-1l-10.68-21.02,18.62-34.42.59-.68c.23-.27.46-.55.64-.82,3.65-4.97,4.15-11.62,1.14-17.05h0Z"/>
  <path class="cls-1" d="m123.47,92.71l-43.04-46.91,6.12,36.74-10.95,10.62,44.6,44.26-4.02-36.74,7.3-7.98Z"/>
</svg>