<?xml version="1.0" encoding="UTF-8"?>
<svg id="Capa_1" data-name="Capa 1" xmlns="http://www.w3.org/2000/svg" viewBox="0 0 200 200">
  <path d="m146.48,157.92h-30.5c-.06-.63-.16-1.27-.17-1.9-.1-5.98-.04-11.98-.35-17.95-.17-3.25-.67-6.55-1.51-9.69-1.26-4.72-4.61-7.49-9.42-8.3-2.02-.34-4.09-.49-6.14-.49-15.31-.04-30.63-.02-45.94-.02-.75,0-1.49,0-2.27,0v-24.16h2.38c15.96,0,31.92.04,47.87-.04,2.87-.02,5.78-.36,8.61-.91,3.28-.64,6.19-2.16,8.19-5.03,5.2-7.45,2.03-18.7-6.48-21.8-3.37-1.23-7.14-1.81-10.74-1.86-15.76-.19-31.53-.08-47.29-.08-.82,0-1.63,0-2.5,0v-23.51c.54-.04.92-.09,1.3-.09,18.02,0,36.03-.04,54.05.02,6.12.02,12.21.56,18.14,2.25,13.23,3.76,22.31,11.64,25.26,25.56.45,2.13.67,4.31.99,6.46v5.02c-.13.68-.29,1.35-.38,2.04-1.49,11.21-7,19.42-17.76,23.65-1.71.67-3.54,1.05-5.5,1.61.45.19.78.36,1.13.46,11.2,3.23,16.96,9.85,17.85,21.41.7,9.09.81,18.22,1.18,27.33Z"/>
  <path d="m50.34,157.92c-.1-.49-.27-.99-.28-1.48-.02-5.45-.01-10.9-.01-16.52.76-.04,1.38-.11,1.99-.11,9.89,0,19.78-.01,29.66,0,5.27,0,7.41,2.1,7.41,7.35,0,3.59-.11,7.18-.16,10.77h-38.61Z"/>
</svg>