<?xml version="1.0" encoding="UTF-8"?>
<svg id="Capa_1" data-name="Capa 1" xmlns="http://www.w3.org/2000/svg" viewBox="0 0 200 200">
  <defs>
    <style>
      .cls-1 {
        fill: #dd0031;
      }
    </style>
  </defs>
  <path class="cls-1" d="m57.82,111.68c.59-7.33,3.3-13.71,8.88-18.71,5.99-5.37,13.18-7.4,20.98-6.56,7.57.82,14.34,4.05,20.43,8.63.52.39,1.11.7,1.58.99.49-.36.89-.64,1.72-1.25-.84-.6-1.42-.97-1.96-1.39-1.26-.98-2.47-2.01-3.75-2.97-8.06-6.05-16.62-11.02-26.87-12.36-6.7-.88-13.23-.62-19.38,2.61-3.97,2.08-7.57,4.6-10.99,7.52-4.04,3.45-7.44,7.43-10.1,11.88-2.88,4.82-5.31,9.97-7.4,15.19-1.31,3.27-1.66,6.92-2.44,10.4.1.1.21.2.31.3h28.96l.31-.3c-.11-2.15-.26-4.3-.3-6.46-.05-2.5-.18-5.01.02-7.49Z"/>
  <path class="cls-1" d="m94.83,113.5c.7-1.83.8-3.93.91-5.92.18-3.32-1.32-5.85-4.41-7.12-1.71-.7-3.62-1.19-5.46-1.28-3.97-.19-7.96-.06-12-.06v26.76h7v-5.88c.16-.07.31-.14.47-.21,1.63,1.71,3.24,3.43,4.91,5.1.41.41,1,.91,1.52.93,3.22.08,6.45.04,10.08.04-2.98-2.96-5.65-5.62-8.38-8.34,2.36-.65,4.51-1.79,5.37-4.03Zm-8.83-1.38c-1.37.09-2.76.12-4.11-.04-.43-.05-1.06-.78-1.11-1.25-.14-1.47-.05-2.96-.05-4.69,1.82,0,3.43.06,5.04-.02,1.82-.08,2.34,1.04,2.46,2.5.15,1.81-.87,3.4-2.24,3.48Z"/>
  <path class="cls-1" d="m120.91,106.91c-.08-3.61-1.84-6.76-5.73-7.11-3.33-.3-6.72-.58-10.02-.26-3.54.34-5.6,3.35-5.59,7,.02,5.74,0,11.48,0,17.22,0,.72,0,1.44,0,2.17h7.1v-4.33h7.1v4.4c2.03,0,3.84-.05,5.64.02,1.14.04,1.55-.39,1.54-1.52-.04-5.86.07-11.73-.05-17.59Zm-7.11,6.65h-6.74c-.11-.1-.21-.2-.32-.3-.02-1.81-.04-3.61-.07-5.42-.02-1.37.71-1.99,2.02-2.07.12,0,.25,0,.38,0q4.73-.11,4.73,4.59v3.19Z"/>
  <path class="cls-1" d="m167.14,109.5c-1.84.11-3.7.02-5.48.02v-3.38h11.87v-6.78c-2.57,0-5.06-.02-7.54,0-1.81.02-3.71-.25-5.42.19-3.33.86-5.89,3.05-5.78,8.61.1,4.87,3.67,7.9,7.73,7.73,1.67-.07,3.34-.01,5.03-.01v2.97c-4.2.19-8.22.37-12.27.55v6.58c4.4,0,8.73.28,13-.14,1.69-.16,3.4-1.68,4.79-2.91,1.89-1.67,1.09-4.13,1.32-6.29.44-4.04-2.5-7.42-7.25-7.14Z"/>
  <path class="cls-1" d="m142.57,99.5h-7.49v26.25h17.63v-6.84h-10.14v-19.41Z"/>
  <path class="cls-1" d="m131.89,100.56c0-.35-.05-.7-.08-1.07h-7.43v26.51c2.02,0,3.84-.09,5.64.03,1.52.1,1.92-.48,1.9-1.93-.06-7.84-.03-15.69-.03-23.53Z"/>
  <path class="cls-1" d="m31.85,107.8c-1.45-.46-3.06-1.53-4-1.11-1.02.46-1.42,2.3-2.29,3.93,1.55.61,2.98,1.18,4.45,1.76.69-1.72,1.25-3.14,1.83-4.58Z"/>
  <path class="cls-1" d="m59.45,118.67c-.18,1.67-.31,2.87-.47,4.31,1.58.55,3.24,1.14,5.05,1.77-.28-1.79-.07-3.52-.83-4.52-.69-.92-2.42-1.06-3.75-1.56Z"/>
  <path class="cls-1" d="m43.38,91.11c-1.09-.86-1.98-1.56-2.48-1.95-1.17.87-2.18,1.63-3.23,2.41,1.13.89,2.01,1.6,2.81,2.23.96-.89,1.82-1.69,2.89-2.69Z"/>
  <path class="cls-1" d="m60.21,106.95c-.27.58-.31,1.27-.48,2.03.93.62,1.93,1.28,3.04,2.03.3-1.4.44-2.18.64-2.93.46-1.74-1.04-2.14-1.98-2.92-.41.6-.91,1.15-1.21,1.8Z"/>
  <path class="cls-1" d="m57.33,79.91q-1.68-2.56-4.4-.92c.55.84,1.11,1.68,1.7,2.59.98-.6,1.84-1.13,2.7-1.66Z"/>
  <path class="cls-1" d="m65.31,96.89c.49.75,1.06,1.63,1.65,2.54.77-.95,1.45-1.79,2.17-2.68-.5-.76-.98-1.49-1.6-2.44-.77.9-1.44,1.68-2.22,2.58Z"/>
  <path class="cls-1" d="m74.66,90.05c.28.77.56,1.53.84,2.31q3.11-1.32,2.28-3.56c-1.01.31-2.03.63-3.05.94,0,.11-.02.22-.07.32Z"/>
  <path class="cls-1" d="m90.06,79.43c.07-.74.14-1.49.22-2.27-1.17-.37-2.24-.7-3.34-1.05-.38,2.63.07,3.1,3.12,3.32Z"/>
  <path class="cls-1" d="m86.23,90.09c1.36.14,2.59.27,3.81.4.1-.9.17-1.55.24-2.22-1.12-.15-2.29-.32-3.41-.47-.23.8-.39,1.38-.64,2.29Z"/>
  <path class="cls-1" d="m72.74,76.02q.04-2.22-3.83-2.01.46,2.48,3.83,2.01Z"/>
</svg>