<?xml version="1.0" encoding="UTF-8"?>
<svg id="Capa_1" data-name="Capa 1" xmlns="http://www.w3.org/2000/svg" viewBox="0 0 200 200">
  <defs>
    <style>
      .cls-1 {
        fill: #fff;
      }

      .cls-2 {
        fill: #ff3e00;
      }
    </style>
  </defs>
  <path class="cls-2" d="m146.97,52.34c-11.97-17.24-35.8-22.29-52.93-11.42l-30.2,19.33c-8.24,5.16-13.95,13.62-15.59,23.17-1.43,8.02-.22,16.25,3.62,23.39-2.64,3.95-4.39,8.35-5.16,12.96-1.76,9.77.55,19.88,6.26,27.89,12.08,17.24,35.8,22.29,52.93,11.42l30.2-19.22c8.24-5.16,13.95-13.62,15.59-23.17,1.43-8.02.22-16.25-3.62-23.39,2.64-3.95,4.39-8.35,5.16-12.96,1.87-9.88-.44-19.99-6.26-28"/>
  <path class="cls-1" d="m91.11,149.3c-9.77,2.53-19.99-1.32-25.7-9.55-3.51-4.83-4.83-10.87-3.84-16.8.22-.99.44-1.87.66-2.86l.55-1.76,1.54,1.1c3.62,2.64,7.58,4.61,11.86,5.93l1.1.33-.11,1.1c-.11,1.54.33,3.18,1.21,4.5,1.76,2.53,4.83,3.73,7.8,2.96.66-.22,1.32-.44,1.87-.77l30.09-19.22c1.54-.99,2.53-2.42,2.86-4.17.33-1.76-.11-3.62-1.1-5.05-1.76-2.53-4.83-3.62-7.8-2.86-.66.22-1.32.44-1.87.77l-11.53,7.36c-1.87,1.21-3.95,2.09-6.15,2.64-9.77,2.53-19.99-1.32-25.7-9.55-3.4-4.83-4.83-10.87-3.73-16.8.99-5.71,4.5-10.87,9.44-13.95l30.2-19.22c1.87-1.21,3.95-2.09,6.15-2.75,9.77-2.53,19.99,1.32,25.7,9.55,3.51,4.83,4.83,10.87,3.84,16.8-.22.99-.44,1.87-.77,2.86l-.55,1.76-1.54-1.1c-3.62-2.64-7.58-4.61-11.86-5.93l-1.1-.33.11-1.1c.11-1.54-.33-3.18-1.21-4.5-1.76-2.53-4.83-3.62-7.8-2.86-.66.22-1.32.44-1.87.77l-30.09,19.22c-1.54.99-2.53,2.42-2.86,4.17s.11,3.62,1.1,5.05c1.76,2.53,4.83,3.62,7.8,2.86.66-.22,1.32-.44,1.87-.77l11.53-7.36c1.87-1.21,3.95-2.09,6.15-2.75,9.77-2.53,19.99,1.32,25.7,9.55,3.51,4.83,4.83,10.87,3.84,16.8-.99,5.71-4.5,10.87-9.44,13.95l-30.2,19.22c-1.87,1.21-3.95,2.09-6.15,2.75"/>
</svg>