<?xml version="1.0" encoding="UTF-8"?>
<svg id="Capa_1" data-name="Capa 1" xmlns="http://www.w3.org/2000/svg" viewBox="0 0 200 200">
  <defs>
    <style>
      .cls-1 {
        fill: #fff;
      }

      .cls-2 {
        fill: #f05138;
      }
    </style>
  </defs>
  <path class="cls-2" d="m155.06,75.44c0-1.11-.02-2.21-.05-3.32-.06-2.41-.21-4.85-.64-7.23-.44-2.42-1.15-4.68-2.27-6.88-1.1-2.16-2.54-4.14-4.25-5.86-1.72-1.72-3.69-3.15-5.86-4.25-2.2-1.12-4.45-1.83-6.87-2.27-2.39-.43-4.82-.57-7.24-.64-1.11-.03-2.22-.04-3.32-.05-1.32,0-2.63,0-3.95,0h-41.23c-1.32,0-2.63,0-3.95,0-1.11,0-2.22.02-3.32.05-.6.02-1.21.04-1.81.07-1.82.09-3.63.25-5.42.57-1.82.33-3.54.81-5.21,1.5-.56.23-1.11.49-1.66.76-1.62.83-3.14,1.84-4.52,3.02-.46.39-.91.8-1.33,1.23-1.72,1.72-3.15,3.69-4.25,5.86-1.12,2.2-1.83,4.45-2.27,6.88-.43,2.39-.57,4.82-.64,7.23-.03,1.11-.04,2.22-.05,3.32,0,1.32,0,2.63,0,3.95v41.23c0,1.32,0,2.63,0,3.95,0,1.11.02,2.21.05,3.32.06,2.41.21,4.85.64,7.23.44,2.42,1.15,4.68,2.27,6.88,1.1,2.16,2.54,4.14,4.25,5.86,1.71,1.72,3.69,3.15,5.86,4.26,2.2,1.12,4.45,1.83,6.88,2.26,2.39.43,4.82.57,7.24.64,1.11.03,2.22.04,3.32.05,1.31,0,2.63,0,3.95,0h41.23c1.31,0,2.63,0,3.95,0,1.11,0,2.22-.02,3.32-.05,2.41-.06,4.85-.21,7.24-.64,2.42-.44,4.67-1.15,6.87-2.26,2.16-1.1,4.14-2.54,5.86-4.26,1.72-1.72,3.15-3.69,4.25-5.86,1.12-2.2,1.83-4.46,2.27-6.88.43-2.39.57-4.82.64-7.23.03-1.11.04-2.21.05-3.32,0-1.32,0-2.63,0-3.95v-41.23c0-1.32,0-2.63,0-3.95Z"/>
  <path class="cls-1" d="m132.2,112.92s0,0,0,0c.12-.41.25-.83.35-1.25,4.57-18.21-6.58-39.74-25.46-51.08,8.27,11.21,11.93,24.8,8.68,36.68-.29,1.06-.64,2.08-1.02,3.06-.42-.27-.94-.59-1.65-.98,0,0-18.78-11.59-39.13-32.1-.53-.54,10.85,16.28,23.78,29.93-6.09-3.42-23.06-15.76-33.8-25.59,1.32,2.2,2.89,4.32,4.61,6.36,8.97,11.38,20.67,25.41,34.68,36.19-9.85,6.03-23.76,6.49-37.62,0-3.43-1.61-6.65-3.54-9.63-5.74,5.86,9.38,14.9,17.47,25.89,22.2,13.11,5.63,26.15,5.25,35.85.09h0s.1-.05.15-.08c.4-.21.79-.43,1.18-.66,4.66-2.42,13.88-4.88,18.82,4.74,1.21,2.36,3.79-10.13-5.68-21.77Z"/>
</svg>