<?xml version="1.0" encoding="UTF-8"?>
<svg id="Capa_1" data-name="Capa 1" xmlns="http://www.w3.org/2000/svg" viewBox="0 0 200 200">
  <path d="m94.14,40.21c-11.77,1.29-22.83,5.84-31.77,13.03-3.02,2.44-7.97,7.53-10.15,10.43-6.21,8.3-10.17,17.77-11.67,27.97-.52,3.45-.68,10.03-.35,13.48.98,10.15,4.22,19.53,9.49,27.52,9.71,14.75,24.54,24.19,41.99,26.77,3.45.52,10.03.68,13.48.35,10.15-.98,19.53-4.22,27.52-9.49,14.75-9.71,24.19-24.54,26.77-41.99.52-3.45.68-10.03.35-13.48-1.2-12.28-5.58-23.16-13.08-32.47-2.44-3.02-7.53-7.97-10.43-10.15-8.3-6.21-17.7-10.13-27.97-11.67-2.84-.42-11.42-.61-14.18-.3Zm21.31,55.04c8.13,14.23,14.79,25.9,14.79,25.95s-13.34.09-29.66.09-29.66-.05-29.66-.12c0-.19,29.61-51.95,29.68-51.86.02.02,6.73,11.7,14.84,25.93Z"/>
</svg>